# xmcd CD database file
#
# Track frame offsets:
#	182
#	5085
#	35940
#	47915
#	61147
#	82512
#	88412
#	129070
#	136670
#	149502
#	161150
#	168287
#	176155
#	188565
#	202365
#	211850
#	218062
#	228040
#	235225
#
# Disc length: 3320 seconds
#
# Revision: 0
# Processed by: cddbd v1.5.1PL0 Copyright (c) Steve Scherf et al.
# Submitted via: CDex 1.51
#
DISCID=090cf613
DTITLE=Duke Ellington - Live At The Whitney
DYEAR=1995
DGENRE=Jazz
TTITLE0=Opening Remarks
TTITLE1=Medley: Black And Tan Fantasy/Prelude To A Kiss/Do Nothing 'till You Hear From Me/Caravan
TTITLE2=Meditation
TTITLE3=A Mural From Two Perspectives
TTITLE4=Sophisticated Lady/Solitude
TTITLE5=Soda Fountain Rag
TTITLE6=New World A-Coming
TTITLE7=Amour - Amour
TTITLE8=Soul Soothing Beach
TTITLE9=Lotus Blossom
TTITLE10=Flamingo
TTITLE11=Le Sucrier Velors
TTITLE12=The Night Shepherd
TTITLE13=C Jam Blues
TTITLE14=Mood Indigo
TTITLE15=I'm Beginning To See The Light
TTITLE16=Dancers In Love
TTITLE17=Kixx
TTITLE18=Satin Doll
EXTD=YEAR: 1995
EXTT0=
EXTT1=
EXTT2=
EXTT3=
EXTT4=
EXTT5=
EXTT6=
EXTT7=
EXTT8=
EXTT9=
EXTT10=
EXTT11=
EXTT12=
EXTT13=
EXTT14=
EXTT15=
EXTT16=
EXTT17=
EXTT18=
PLAYORDER=
